<svg width="138" height="46" viewBox="0 0 138 46" fill="none" xmlns="http://www.w3.org/2000/svg">
<path d="M18.6264 1.36364V45H10.7216V9.0554H10.4659L0.259943 15.5753V8.33097L11.1051 1.36364H18.6264ZM44.6352 45.831C41.1267 45.831 38.1153 44.9432 35.6011 43.1676C33.1011 41.3778 31.1764 38.7997 29.827 35.4332C28.4918 32.0526 27.8241 27.983 27.8241 23.2244C27.8384 18.4659 28.5131 14.4176 29.8483 11.0795C31.1977 7.72727 33.1224 5.17045 35.6224 3.40909C38.1366 1.64773 41.1409 0.767044 44.6352 0.767044C48.1295 0.767044 51.1338 1.64773 53.648 3.40909C56.1622 5.17045 58.0869 7.72727 59.4222 11.0795C60.7716 14.4318 61.4463 18.4801 61.4463 23.2244C61.4463 27.9972 60.7716 32.0739 59.4222 35.4545C58.0869 38.821 56.1622 41.392 53.648 43.1676C51.148 44.9432 48.1437 45.831 44.6352 45.831ZM44.6352 39.1619C47.3625 39.1619 49.5145 37.8196 51.0912 35.1349C52.6821 32.4361 53.4776 28.4659 53.4776 23.2244C53.4776 19.7585 53.1153 16.8466 52.3909 14.4886C51.6665 12.1307 50.6437 10.3551 49.3227 9.16193C48.0017 7.95455 46.4392 7.35085 44.6352 7.35085C41.9222 7.35085 39.7773 8.70028 38.2006 11.3991C36.6239 14.0838 35.8284 18.0256 35.8142 23.2244C35.8 26.7045 36.148 29.6307 36.8582 32.0028C37.5827 34.375 38.6054 36.1648 39.9264 37.3722C41.2474 38.5653 42.817 39.1619 44.6352 39.1619ZM83.4548 45.831C79.9462 45.831 76.9349 44.9432 74.4207 43.1676C71.9207 41.3778 69.996 38.7997 68.6465 35.4332C67.3113 32.0526 66.6437 27.983 66.6437 23.2244C66.6579 18.4659 67.3326 14.4176 68.6678 11.0795C70.0173 7.72727 71.942 5.17045 74.442 3.40909C76.9562 1.64773 79.9604 0.767044 83.4548 0.767044C86.9491 0.767044 89.9533 1.64773 92.4675 3.40909C94.9817 5.17045 96.9065 7.72727 98.2417 11.0795C99.5911 14.4318 100.266 18.4801 100.266 23.2244C100.266 27.9972 99.5911 32.0739 98.2417 35.4545C96.9065 38.821 94.9817 41.392 92.4675 43.1676C89.9675 44.9432 86.9633 45.831 83.4548 45.831ZM83.4548 39.1619C86.182 39.1619 88.334 37.8196 89.9107 35.1349C91.5016 32.4361 92.2971 28.4659 92.2971 23.2244C92.2971 19.7585 91.9349 16.8466 91.2104 14.4886C90.486 12.1307 89.4633 10.3551 88.1423 9.16193C86.8212 7.95455 85.2587 7.35085 83.4548 7.35085C80.7417 7.35085 78.5968 8.70028 77.0201 11.3991C75.4434 14.0838 74.6479 18.0256 74.6337 23.2244C74.6195 26.7045 74.9675 29.6307 75.6778 32.0028C76.4022 34.375 77.4249 36.1648 78.746 37.3722C80.067 38.5653 81.6366 39.1619 83.4548 39.1619ZM119.1 38.0114V8.52273H125.79V38.0114H119.1ZM107.7 26.6122V19.9219H137.189V26.6122H107.7Z" fill="#8E2424"/>
</svg>
