<svg width="149" height="46" viewBox="0 0 149 46" fill="none" xmlns="http://www.w3.org/2000/svg">
<path d="M0.0894888 36.9034V30.6179L18.6051 1.36364H23.8466V10.3125H20.6506L8.18608 30.0639V30.4048H34.0312V36.9034H0.0894888ZM20.9062 45V34.9858L20.9915 32.1733V1.36364H28.4489V45H20.9062ZM55.768 45.831C52.2595 45.831 49.2482 44.9432 46.7339 43.1676C44.2339 41.3778 42.3092 38.7997 40.9598 35.4332C39.6246 32.0526 38.957 27.983 38.957 23.2244C38.9712 18.4659 39.6459 14.4176 40.9811 11.0795C42.3305 7.72727 44.2553 5.17045 46.7553 3.40909C49.2695 1.64773 52.2737 0.767044 55.768 0.767044C59.2624 0.767044 62.2666 1.64773 64.7808 3.40909C67.295 5.17045 69.2197 7.72727 70.555 11.0795C71.9044 14.4318 72.5791 18.4801 72.5791 23.2244C72.5791 27.9972 71.9044 32.0739 70.555 35.4545C69.2197 38.821 67.295 41.392 64.7808 43.1676C62.2808 44.9432 59.2766 45.831 55.768 45.831ZM55.768 39.1619C58.4953 39.1619 60.6473 37.8196 62.224 35.1349C63.8149 32.4361 64.6104 28.4659 64.6104 23.2244C64.6104 19.7585 64.2482 16.8466 63.5237 14.4886C62.7993 12.1307 61.7766 10.3551 60.4555 9.16193C59.1345 7.95455 57.572 7.35085 55.768 7.35085C53.055 7.35085 50.9101 8.70028 49.3334 11.3991C47.7567 14.0838 46.9612 18.0256 46.947 23.2244C46.9328 26.7045 47.2808 29.6307 47.9911 32.0028C48.7155 34.375 49.7382 36.1648 51.0592 37.3722C52.3803 38.5653 53.9499 39.1619 55.768 39.1619ZM94.5876 45.831C91.079 45.831 88.0677 44.9432 85.5535 43.1676C83.0535 41.3778 81.1288 38.7997 79.7793 35.4332C78.4441 32.0526 77.7765 27.983 77.7765 23.2244C77.7907 18.4659 78.4654 14.4176 79.8006 11.0795C81.1501 7.72727 83.0748 5.17045 85.5748 3.40909C88.089 1.64773 91.0933 0.767044 94.5876 0.767044C98.0819 0.767044 101.086 1.64773 103.6 3.40909C106.115 5.17045 108.039 7.72727 109.375 11.0795C110.724 14.4318 111.399 18.4801 111.399 23.2244C111.399 27.9972 110.724 32.0739 109.375 35.4545C108.039 38.821 106.115 41.392 103.6 43.1676C101.1 44.9432 98.0961 45.831 94.5876 45.831ZM94.5876 39.1619C97.3148 39.1619 99.4668 37.8196 101.044 35.1349C102.634 32.4361 103.43 28.4659 103.43 23.2244C103.43 19.7585 103.068 16.8466 102.343 14.4886C101.619 12.1307 100.596 10.3551 99.2751 9.16193C97.954 7.95455 96.3915 7.35085 94.5876 7.35085C91.8745 7.35085 89.7296 8.70028 88.1529 11.3991C86.5762 14.0838 85.7808 18.0256 85.7665 23.2244C85.7523 26.7045 86.1004 29.6307 86.8106 32.0028C87.535 34.375 88.5577 36.1648 89.8788 37.3722C91.1998 38.5653 92.7694 39.1619 94.5876 39.1619ZM130.232 38.0114V8.52273H136.923V38.0114H130.232ZM118.833 26.6122V19.9219H148.322V26.6122H118.833Z" fill="#8E2424"/>
</svg>
