<svg width="147" height="46" viewBox="0 0 147 46" fill="none" xmlns="http://www.w3.org/2000/svg">
<path d="M16.0483 45.5966C13.2074 45.5966 10.6648 45.0639 8.42046 43.9986C6.17614 42.919 4.39347 41.4418 3.07244 39.5668C1.76563 37.6918 1.0696 35.5469 0.984375 33.1321H8.65483C8.79688 34.9219 9.57102 36.3849 10.9773 37.5213C12.3835 38.6435 14.0739 39.2045 16.0483 39.2045C17.5966 39.2045 18.9744 38.8494 20.1818 38.1392C21.3892 37.429 22.3409 36.4418 23.0369 35.1776C23.733 33.9134 24.0739 32.4716 24.0597 30.8523C24.0739 29.2045 23.7259 27.7415 23.0156 26.4631C22.3054 25.1847 21.3324 24.1832 20.0966 23.4588C18.8608 22.7202 17.4403 22.3509 15.8352 22.3509C14.5284 22.3366 13.2429 22.5781 11.9787 23.0753C10.7145 23.5724 9.71307 24.2259 8.97443 25.0355L1.83665 23.8636L4.11648 1.36364H29.429V7.96875H10.6577L9.40057 19.5384H9.65625C10.4659 18.5866 11.6094 17.7983 13.0866 17.1733C14.5639 16.5341 16.1832 16.2145 17.9446 16.2145C20.5866 16.2145 22.9446 16.8395 25.0185 18.0895C27.0923 19.3253 28.7259 21.0298 29.919 23.2031C31.1122 25.3764 31.7088 27.8622 31.7088 30.6605C31.7088 33.544 31.0412 36.1151 29.706 38.3736C28.3849 40.6179 26.5455 42.3864 24.1875 43.679C21.8438 44.9574 19.1307 45.5966 16.0483 45.5966ZM53.7759 45.831C50.2673 45.831 47.256 44.9432 44.7418 43.1676C42.2418 41.3778 40.317 38.7997 38.9676 35.4332C37.6324 32.0526 36.9648 27.983 36.9648 23.2244C36.979 18.4659 37.6537 14.4176 38.9889 11.0795C40.3384 7.72727 42.2631 5.17045 44.7631 3.40909C47.2773 1.64773 50.2815 0.767044 53.7759 0.767044C57.2702 0.767044 60.2744 1.64773 62.7886 3.40909C65.3028 5.17045 67.2276 7.72727 68.5628 11.0795C69.9122 14.4318 70.5869 18.4801 70.5869 23.2244C70.5869 27.9972 69.9122 32.0739 68.5628 35.4545C67.2276 38.821 65.3028 41.392 62.7886 43.1676C60.2886 44.9432 57.2844 45.831 53.7759 45.831ZM53.7759 39.1619C56.5031 39.1619 58.6551 37.8196 60.2318 35.1349C61.8227 32.4361 62.6182 28.4659 62.6182 23.2244C62.6182 19.7585 62.256 16.8466 61.5315 14.4886C60.8071 12.1307 59.7844 10.3551 58.4634 9.16193C57.1423 7.95455 55.5798 7.35085 53.7759 7.35085C51.0628 7.35085 48.9179 8.70028 47.3412 11.3991C45.7645 14.0838 44.969 18.0256 44.9548 23.2244C44.9406 26.7045 45.2886 29.6307 45.9989 32.0028C46.7233 34.375 47.746 36.1648 49.067 37.3722C50.3881 38.5653 51.9577 39.1619 53.7759 39.1619ZM92.5954 45.831C89.0869 45.831 86.0755 44.9432 83.5613 43.1676C81.0613 41.3778 79.1366 38.7997 77.7871 35.4332C76.4519 32.0526 75.7843 27.983 75.7843 23.2244C75.7985 18.4659 76.4732 14.4176 77.8085 11.0795C79.1579 7.72727 81.0826 5.17045 83.5826 3.40909C86.0968 1.64773 89.1011 0.767044 92.5954 0.767044C96.0897 0.767044 99.094 1.64773 101.608 3.40909C104.122 5.17045 106.047 7.72727 107.382 11.0795C108.732 14.4318 109.406 18.4801 109.406 23.2244C109.406 27.9972 108.732 32.0739 107.382 35.4545C106.047 38.821 104.122 41.392 101.608 43.1676C99.1082 44.9432 96.1039 45.831 92.5954 45.831ZM92.5954 39.1619C95.3227 39.1619 97.4746 37.8196 99.0513 35.1349C100.642 32.4361 101.438 28.4659 101.438 23.2244C101.438 19.7585 101.075 16.8466 100.351 14.4886C99.6266 12.1307 98.6039 10.3551 97.2829 9.16193C95.9619 7.95455 94.3994 7.35085 92.5954 7.35085C89.8823 7.35085 87.7374 8.70028 86.1607 11.3991C84.584 14.0838 83.7886 18.0256 83.7744 23.2244C83.7602 26.7045 84.1082 29.6307 84.8184 32.0028C85.5428 34.375 86.5656 36.1648 87.8866 37.3722C89.2076 38.5653 90.7772 39.1619 92.5954 39.1619ZM128.24 38.0114V8.52273H134.931V38.0114H128.24ZM116.841 26.6122V19.9219H146.33V26.6122H116.841Z" fill="#8E2424"/>
</svg>
