<svg width="106" height="46" viewBox="0 0 106 46" fill="none" xmlns="http://www.w3.org/2000/svg">
<path d="M0.877841 45V39.2898L16.027 24.4389C17.4759 22.9759 18.6832 21.6761 19.6491 20.5398C20.6151 19.4034 21.3395 18.3026 21.8224 17.2372C22.3054 16.1719 22.5469 15.0355 22.5469 13.8281C22.5469 12.4503 22.2344 11.2713 21.6094 10.2912C20.9844 9.29687 20.125 8.52983 19.0312 7.99006C17.9375 7.45028 16.6946 7.1804 15.3026 7.1804C13.8679 7.1804 12.6108 7.47869 11.5312 8.07528C10.4517 8.65767 9.61364 9.48864 9.01705 10.5682C8.43466 11.6477 8.14347 12.9332 8.14347 14.4247H0.622159C0.622159 11.6548 1.25426 9.24716 2.51847 7.2017C3.78267 5.15625 5.52273 3.57244 7.73864 2.45028C9.96875 1.32812 12.5256 0.767044 15.4091 0.767044C18.3352 0.767044 20.9063 1.31392 23.1222 2.40767C25.3381 3.50142 27.0568 5 28.2784 6.90341C29.5142 8.80682 30.1321 10.9801 30.1321 13.4233C30.1321 15.0568 29.8196 16.6619 29.1946 18.2386C28.5696 19.8153 27.4688 21.5625 25.892 23.4801C24.3295 25.3977 22.1349 27.7202 19.3082 30.4474L11.7869 38.0966V38.3949H30.7926V45H0.877841ZM53.0727 45.831C49.5642 45.831 46.5528 44.9432 44.0386 43.1676C41.5386 41.3778 39.6139 38.7997 38.2645 35.4332C36.9293 32.0526 36.2616 27.983 36.2616 23.2244C36.2759 18.4659 36.9506 14.4176 38.2858 11.0795C39.6352 7.72727 41.5599 5.17045 44.0599 3.40909C46.5741 1.64773 49.5784 0.767044 53.0727 0.767044C56.567 0.767044 59.5713 1.64773 62.0855 3.40909C64.5997 5.17045 66.5244 7.72727 67.8597 11.0795C69.2091 14.4318 69.8838 18.4801 69.8838 23.2244C69.8838 27.9972 69.2091 32.0739 67.8597 35.4545C66.5244 38.821 64.5997 41.392 62.0855 43.1676C59.5855 44.9432 56.5812 45.831 53.0727 45.831ZM53.0727 39.1619C55.8 39.1619 57.952 37.8196 59.5287 35.1349C61.1196 32.4361 61.9151 28.4659 61.9151 23.2244C61.9151 19.7585 61.5528 16.8466 60.8284 14.4886C60.104 12.1307 59.0812 10.3551 57.7602 9.16193C56.4392 7.95455 54.8767 7.35085 53.0727 7.35085C50.3597 7.35085 48.2148 8.70028 46.6381 11.3991C45.0614 14.0838 44.2659 18.0256 44.2517 23.2244C44.2375 26.7045 44.5855 29.6307 45.2957 32.0028C46.0202 34.375 47.0429 36.1648 48.3639 37.3722C49.6849 38.5653 51.2545 39.1619 53.0727 39.1619ZM82.8795 34.7301L82.8582 25.419H84.094L95.8553 12.2727H104.868L90.4008 28.3807H88.8028L82.8795 34.7301ZM75.8482 45V1.36364H83.5613V45H75.8482ZM96.388 45L85.7346 30.1065L90.9335 24.6733L105.614 45H96.388Z" fill="#8E2424"/>
</svg>
